<svg id="Flat" viewBox="0 0 64 64" xmlns="http://www.w3.org/2000/svg"><circle cx="32" cy="32" fill="#f3f4ff" r="30"/><path d="m32 63.75a31.75 31.75 0 1 1 31.75-31.75 31.786 31.786 0 0 1 -31.75 31.75zm0-60a28.25 28.25 0 1 0 28.25 28.25 28.282 28.282 0 0 0 -28.25-28.25z" fill="#ffe155"/><path d="m49 17.25h-34a4.756 4.756 0 0 0 -4.75 4.75v20a4.743 4.743 0 0 0 .385 1.874h42.73a4.743 4.743 0 0 0 .385-1.874v-20a4.756 4.756 0 0 0 -4.75-4.75z" fill="#ffb243"/><path d="m15 46.75h34a4.758 4.758 0 0 0 4.365-2.876l-20.194-18.174a1.751 1.751 0 0 0 -2.342 0l-20.194 18.174a4.758 4.758 0 0 0 4.365 2.876z" fill="#f4ce2c"/><path d="m37.185 34.688 16.18-14.562a4.758 4.758 0 0 0 -4.365-2.876h-34a4.758 4.758 0 0 0 -4.365 2.876l16.18 14.562a7.751 7.751 0 0 0 10.37 0z" fill="#ffe155"/></svg>